<svg width="54" height="54" viewBox="0 0 54 54" fill="none" xmlns="http://www.w3.org/2000/svg">
<path fill-rule="evenodd" clip-rule="evenodd" d="M32.6133 0H21.3333C9.55126 0 0 9.55126 0 21.3333V32.64C0 44.4221 9.55126 53.9733 21.3333 53.9733H32.6133C44.3954 53.9733 53.9467 44.4221 53.9467 32.64V21.3333C53.9467 9.55126 44.3954 0 32.6133 0ZM16.32 10.9867C19.2655 10.9867 21.6533 13.3745 21.6533 16.32C21.6533 19.2655 19.2655 21.6533 16.32 21.6533C13.3745 21.6533 10.9867 19.2655 10.9867 16.32C10.9867 13.3745 13.3745 10.9867 16.32 10.9867ZM36.0267 48.32C43.5764 45.5005 48.5898 38.299 48.6133 30.24L48.5333 25.6533C48.5333 24.56 48.32 22.5067 48.32 22.5067H43.9733C33.9103 22.5372 24.7215 28.2299 20.2133 37.2267C16.9411 34.3014 12.7091 32.6789 8.32 32.6667H5.09333C4.85531 38.866 8.22243 44.6441 13.7333 47.4933C15.7034 48.5428 17.9012 49.0922 20.1333 49.0933H31.2533C32.8774 49.1166 34.493 48.8548 36.0267 48.32Z" fill="#E2E8F0"/>
</svg>
